<?xml version="1.0" encoding="utf-8"?>
<!-- Generator: Adobe Illustrator 27.0.0, SVG Export Plug-In . SVG Version: 6.00 Build 0)  -->
<svg version="1.1" id="Layer_1" xmlns="http://www.w3.org/2000/svg" xmlns:xlink="http://www.w3.org/1999/xlink" x="0px" y="0px"
	 viewBox="0 0 24 24" style="enable-background:new 0 0 24 24;" xml:space="preserve">
<style type="text/css">
	.st0{fill:url(#SVGID_1_);}
</style>
<g id="Guides">
</g>
<g id="_x32_0">
</g>
<g id="_x31_9">
</g>
<g id="_x31_8">
</g>
<g id="_x31_7">
</g>
<g id="_x31_6">
</g>
<g id="_x31_5">
</g>
<g id="_x31_4">
</g>
<g id="_x31_3">
</g>
<g id="_x31_2">
</g>
<g id="_x31_1">
</g>
<g id="_x31_0">
</g>
<g id="_x30_9">
</g>
<g id="_x30_8">
</g>
<g id="_x30_7">
</g>
<g id="_x30_6">
</g>
<g id="_x30_5">
</g>
<g id="_x30_4">
</g>
<g id="_x30_3">
</g>
<g id="_x30_2">
</g>
<g id="_x30_1">
	<linearGradient id="SVGID_1_" gradientUnits="userSpaceOnUse" x1="12" y1="22" x2="12" y2="2">
		<stop  offset="0.2856" style="stop-color:#F2AE0F"/>
		<stop  offset="1" style="stop-color:#F28C0F"/>
	</linearGradient>
	<path class="st0" d="M21.3,8.4c-0.8-1.7-2.4-2.8-4.2-3.3C16.1,3.2,14,2,11.8,2h-0.5c-3,0-5.5,2.2-6.1,5H5c-1.7,0-3,1.3-3,3v1.5
		c0,1.9,1.1,3.6,2.8,4.5L6,16.6V18c0,0.6,0.4,1,1,1h1.8c0,0,0,0,0,0l1.2,0.6V21c0,0.6,0.4,1,1,1h7c0.6,0,1-0.4,1-1l0-1.5l0.8-0.5
		c1.4-0.9,2.2-2.5,2.2-4.2v-3.6C22,10.3,21.8,9.3,21.3,8.4z M9,17C9,17,9,17,9,17C9,17,9,17,9,17H8v-0.4c0-0.8-0.4-1.5-1.1-1.8
		l-1.2-0.6c-1-0.5-1.7-1.6-1.7-2.7V10c0-0.6,0.4-1,1-1v1c0,0.6,0.4,1,1,1s1-0.4,1-1V8.2C7,5.9,8.9,4,11.2,4h0.5
		c1.6,0,3.1,0.9,3.8,2.4c0,0,0,0,0,0c0,0,0,0.1,0,0.1C15.9,7,16,7.6,16,8.2v3.6c0,1-0.5,1.9-1.3,2.5l-0.8,0.5
		c-0.6,0.4-0.9,1-0.9,1.7V17H9z M20,14.9c0,1-0.5,1.9-1.3,2.5l-0.8,0.5c-0.6,0.4-0.9,1-0.9,1.7V20h-5v-0.4c0-0.2,0-0.4-0.1-0.6H14
		c0.6,0,1-0.4,1-1l0-1.5l0.8-0.5c1.4-0.9,2.2-2.5,2.2-4.2V8.2c0-0.2,0-0.4,0-0.6c0.7,0.4,1.2,1,1.6,1.7c0.3,0.6,0.4,1.2,0.4,1.9
		V14.9z"/>
</g>
</svg>
