<?xml version="1.0" encoding="utf-8"?>
<!-- Generator: Adobe Illustrator 27.0.0, SVG Export Plug-In . SVG Version: 6.00 Build 0)  -->
<svg version="1.1" id="Layer_1" xmlns="http://www.w3.org/2000/svg" xmlns:xlink="http://www.w3.org/1999/xlink" x="0px" y="0px"
	 viewBox="0 0 64 64" style="enable-background:new 0 0 64 64;" xml:space="preserve">
<style type="text/css">
	.st0{fill:url(#SVGID_1_);}
	.st1{fill:url(#SVGID_00000123438513381114351680000002016243097184808085_);}
</style>
<g>
	<linearGradient id="SVGID_1_" gradientUnits="userSpaceOnUse" x1="32" y1="63" x2="32" y2="1">
		<stop  offset="0.2856" style="stop-color:#F2AE0F"/>
		<stop  offset="1" style="stop-color:#F28C0F"/>
	</linearGradient>
	<path class="st0" d="M53.8,20.1l3.7-3.7c0.8-0.8,0.8-2,0-2.8l-7.1-7.1c-0.8-0.8-2-0.8-2.8,0l-4.7,4.7c-1.2-0.5-2.5-1-3.8-1.3V3
		c0-1.1-0.9-2-2-2H27c-1.1,0-2,0.9-2,2v2c0,1.1,0.9,2,2,2s2-0.9,2-2h6v4.2C34,9.1,33,9,32,9c-3.8,0-7.5,0.8-10.8,2.3l-4.7-4.7
		c-0.8-0.8-2-0.8-2.8,0l-7.1,7.1c-0.8,0.8-0.8,2,0,2.8l3.7,3.7C6.9,24.6,5,30.1,5,36c0,14.9,12.1,27,27,27c8.6,0,16.4-3.9,21.6-10.8
		c0.7-0.9,0.5-2.1-0.4-2.8c-0.9-0.7-2.1-0.5-2.8,0.4C46,55.6,39.3,59,32,59c-12,0-21.9-9.3-22.9-21H13c1.1,0,2-0.9,2-2s-0.9-2-2-2
		H9.1c0.4-4.8,2.3-9.3,5.3-12.8l2.8,2.8c0.4,0.4,0.9,0.6,1.4,0.6s1-0.2,1.4-0.6c0.8-0.8,0.8-2,0-2.8l-2.8-2.8
		c3.5-3,7.9-4.9,12.8-5.3V17c0,1.1,0.9,2,2,2s2-0.9,2-2v-3.9c4.8,0.4,9.3,2.3,12.8,5.3L44,21.2c-0.8,0.8-0.8,2,0,2.8
		c0.4,0.4,0.9,0.6,1.4,0.6s1-0.2,1.4-0.6l2.8-2.8c3,3.5,4.9,7.9,5.3,12.8H51c-1.1,0-2,0.9-2,2s0.9,2,2,2h3.9
		c-0.2,1.8-0.5,3.6-1.1,5.4c-0.4,1,0.2,2.2,1.3,2.5c1,0.4,2.2-0.2,2.5-1.3C58.5,41.9,59,39,59,36C59,30.1,57.1,24.6,53.8,20.1z
		 M49,10.8l4.2,4.2l-2,2c0,0,0,0,0,0c0,0-0.1-0.1-0.1-0.1c0,0-0.1-0.1-0.1-0.1c-1.4-1.3-2.8-2.5-4.5-3.6L49,10.8z M10.8,15l4.2-4.2
		l2.5,2.5c-1.6,1-3.1,2.2-4.5,3.6c0,0-0.1,0.1-0.1,0.1c0,0-0.1,0.1-0.1,0.1c0,0,0,0,0,0L10.8,15z"/>
	
		<linearGradient id="SVGID_00000067918603572710710730000008310179552675073458_" gradientUnits="userSpaceOnUse" x1="33.5437" y1="44.9971" x2="33.5437" y2="25.8193">
		<stop  offset="0.2856" style="stop-color:#F2AE0F"/>
		<stop  offset="1" style="stop-color:#F28C0F"/>
	</linearGradient>
	<path style="fill:url(#SVGID_00000067918603572710710730000008310179552675073458_);" d="M39.2,26c-2.5,1.2-10.8,5.3-12.7,7.6
		c-2.4,3-1.9,7.4,1.1,9.8c1.3,1,2.8,1.5,4.3,1.5c2.1,0,4.1-0.9,5.5-2.6c0.6-0.7,1.4-2.1,2.7-6.8c1-3.5,1.8-7.1,1.8-7.3
		c0.2-0.7-0.1-1.5-0.7-2C40.7,25.8,39.9,25.7,39.2,26z M36.3,34.4c-1.2,4.3-1.9,5.3-2,5.4c-0.5,0.6-1.2,1-2,1.1
		c-0.8,0.1-1.6-0.1-2.2-0.6c-1.3-1-1.5-2.9-0.5-4.2c0.7-0.8,3.9-2.7,7.5-4.6C36.9,32.5,36.6,33.5,36.3,34.4z"/>
</g>
</svg>
