<?xml version="1.0" encoding="utf-8"?>
<!-- Generator: Adobe Illustrator 27.0.0, SVG Export Plug-In . SVG Version: 6.00 Build 0)  -->
<svg version="1.1" id="Icons" xmlns="http://www.w3.org/2000/svg" xmlns:xlink="http://www.w3.org/1999/xlink" x="0px" y="0px"
	 viewBox="0 0 24 24" style="enable-background:new 0 0 24 24;" xml:space="preserve">
<style type="text/css">
	.st0{fill:url(#SVGID_1_);}
	.st1{fill:url(#SVGID_00000093159841169487729400000010794340952133200574_);}
</style>
<g>
	<linearGradient id="SVGID_1_" gradientUnits="userSpaceOnUse" x1="12" y1="24" x2="12" y2="-9.094947e-13">
		<stop  offset="0.2856" style="stop-color:#F2AE0F"/>
		<stop  offset="1" style="stop-color:#F28C0F"/>
	</linearGradient>
	<path class="st0" d="M12,0C5.4,0,0,5.4,0,12s5.4,12,12,12s12-5.4,12-12C24,5.4,18.6,0,12,0z M12,22C6.5,22,2,17.5,2,12S6.5,2,12,2
		s10,4.5,10,10C22,17.5,17.5,22,12,22z"/>
	
		<linearGradient id="SVGID_00000105408250692239443700000018101401729229356445_" gradientUnits="userSpaceOnUse" x1="13.4939" y1="15.9877" x2="13.4939" y2="5">
		<stop  offset="0.2856" style="stop-color:#F2AE0F"/>
		<stop  offset="1" style="stop-color:#F28C0F"/>
	</linearGradient>
	<path style="fill:url(#SVGID_00000105408250692239443700000018101401729229356445_);" d="M13,11.6V6c0-0.6-0.4-1-1-1s-1,0.4-1,1v6
		c0,0.3,0.1,0.5,0.3,0.7l3,3c0.4,0.4,1,0.4,1.4,0c0.4-0.4,0.4-1,0-1.4L13,11.6z"/>
</g>
</svg>
