<?xml version="1.0" encoding="utf-8"?>
<!-- Generator: Adobe Illustrator 27.0.0, SVG Export Plug-In . SVG Version: 6.00 Build 0)  -->
<svg version="1.1" id="Layer_1" xmlns="http://www.w3.org/2000/svg" xmlns:xlink="http://www.w3.org/1999/xlink" x="0px" y="0px"
	 viewBox="0 0 64 64" style="enable-background:new 0 0 64 64;" xml:space="preserve">
<style type="text/css">
	.st0{fill:url(#Fill-3_00000140727050561658057470000014479416135720358019_);}
	.st1{fill:url(#Fill-4_00000049904706326662808150000007404905713586786702_);}
</style>
<g>
	<g id="Icon-Envelope" transform="translate(78.000000, 232.000000)">
		
			<linearGradient id="Fill-3_00000056412070329150710590000013177315981747693245_" gradientUnits="userSpaceOnUse" x1="-46.05" y1="-185" x2="-46.05" y2="-215.1">
			<stop  offset="0.2856" style="stop-color:#F2AE0F"/>
			<stop  offset="1" style="stop-color:#F28C0F"/>
		</linearGradient>
		<path id="Fill-3" style="fill:url(#Fill-3_00000056412070329150710590000013177315981747693245_);" d="M-22.5-213.2l-1.9-1.9
			L-42-197.5c-2.2,2.2-5.9,2.2-8.1,0L-67.7-215l-1.9,1.9l13.1,13.1l-13.1,13.1l1.9,1.9l13.1-13.1l2.6,2.6c1.6,1.6,3.7,2.5,5.9,2.5
			s4.3-0.9,5.9-2.5l2.6-2.6l13.1,13.1l1.9-1.9L-35.7-200L-22.5-213.2"/>
		
			<linearGradient id="Fill-4_00000085935459465201432960000011241787843051528336_" gradientUnits="userSpaceOnUse" x1="-45.95" y1="-181.6" x2="-45.95" y2="-218.2">
			<stop  offset="0.2856" style="stop-color:#F2AE0F"/>
			<stop  offset="1" style="stop-color:#F28C0F"/>
		</linearGradient>
		<path id="Fill-4" style="fill:url(#Fill-4_00000085935459465201432960000011241787843051528336_);" d="M-26.2-181.6h-39.5
			c-2.3,0-4.2-1.9-4.2-4.2V-214c0-2.3,1.9-4.2,4.2-4.2h39.5c2.3,0,4.2,1.9,4.2,4.2v28.2C-22-183.5-23.9-181.6-26.2-181.6
			L-26.2-181.6z M-65.8-215.5c-0.8,0-1.4,0.6-1.4,1.4v28.2c0,0.8,0.6,1.4,1.4,1.4h39.5c0.8,0,1.4-0.6,1.4-1.4v-28.2
			c0-0.8-0.6-1.4-1.4-1.4H-65.8L-65.8-215.5z"/>
	</g>
</g>
</svg>
