<?xml version="1.0" encoding="utf-8"?>
<!-- Generator: Adobe Illustrator 27.0.0, SVG Export Plug-In . SVG Version: 6.00 Build 0)  -->
<svg version="1.1" id="Layer_1" xmlns="http://www.w3.org/2000/svg" xmlns:xlink="http://www.w3.org/1999/xlink" x="0px" y="0px"
	 viewBox="0 0 24 24" style="enable-background:new 0 0 24 24;" xml:space="preserve">
<style type="text/css">
	.st0{fill:url(#SVGID_1_);}
	.st1{fill:url(#SVGID_00000063625240843654065460000013545005074538839957_);}
	.st2{fill:url(#SVGID_00000044873135302166035500000007412713290554760330_);}
	.st3{fill:url(#SVGID_00000126304077444861738420000003505449968582441867_);}
	.st4{fill:url(#SVGID_00000075853021852668736350000000661353077339344818_);}
</style>
<g>
	<linearGradient id="SVGID_1_" gradientUnits="userSpaceOnUse" x1="19.3724" y1="9.8688" x2="19.3724" y2="3.8068">
		<stop  offset="0.2856" style="stop-color:#F2AE0F"/>
		<stop  offset="1" style="stop-color:#F28C0F"/>
	</linearGradient>
	<path class="st0" d="M20.3,9.9L16.8,5l1.6-1.1l3.4,4.9L20.3,9.9z"/>
	
		<linearGradient id="SVGID_00000054969815231867152090000006233326124875053449_" gradientUnits="userSpaceOnUse" x1="12" y1="20.6327" x2="12" y2="2.9987">
		<stop  offset="0.2856" style="stop-color:#F2AE0F"/>
		<stop  offset="1" style="stop-color:#F28C0F"/>
	</linearGradient>
	<path style="fill:url(#SVGID_00000054969815231867152090000006233326124875053449_);" d="M18.4,12.4L16.7,10l-8.2,5.7l1.7,2.5
		l-1.6,1.1L4,12.7l1.6-1.1L7.3,14l8.2-5.7l-1.7-2.5l1.6-1.1l4.6,6.6L18.4,12.4z"/>
	
		<linearGradient id="SVGID_00000003100098740136862700000001778583829169854124_" gradientUnits="userSpaceOnUse" x1="21.0107" y1="7.0833" x2="21.0107" y2="4.2979">
		<stop  offset="0.2856" style="stop-color:#F2AE0F"/>
		<stop  offset="1" style="stop-color:#F28C0F"/>
	</linearGradient>
	<path style="fill:url(#SVGID_00000003100098740136862700000001778583829169854124_);" d="M20.8,7.1l1.6-1.1l-1.1-1.6l-1.6,1.1
		L20.8,7.1z"/>
	
		<linearGradient id="SVGID_00000152955553555137719310000004156644659444505020_" gradientUnits="userSpaceOnUse" x1="4.6277" y1="20.1931" x2="4.6277" y2="14.131">
		<stop  offset="0.2856" style="stop-color:#F2AE0F"/>
		<stop  offset="1" style="stop-color:#F28C0F"/>
	</linearGradient>
	<path style="fill:url(#SVGID_00000152955553555137719310000004156644659444505020_);" d="M7.2,19l-3.4-4.9l-1.6,1.1l3.4,4.9L7.2,19
		z"/>
	
		<linearGradient id="SVGID_00000090285448326474415110000009955239335975061924_" gradientUnits="userSpaceOnUse" x1="2.9894" y1="19.702" x2="2.9894" y2="16.9166">
		<stop  offset="0.2856" style="stop-color:#F2AE0F"/>
		<stop  offset="1" style="stop-color:#F28C0F"/>
	</linearGradient>
	<path style="fill:url(#SVGID_00000090285448326474415110000009955239335975061924_);" d="M4.4,18.6l-1.6,1.1l-1.1-1.6l1.6-1.1
		L4.4,18.6z"/>
</g>
</svg>
