<?xml version="1.0" encoding="utf-8"?>
<!-- Generator: Adobe Illustrator 27.0.0, SVG Export Plug-In . SVG Version: 6.00 Build 0)  -->
<svg version="1.1" id="Layer_1" xmlns="http://www.w3.org/2000/svg" xmlns:xlink="http://www.w3.org/1999/xlink" x="0px" y="0px"
	 viewBox="0 0 24 24" style="enable-background:new 0 0 24 24;" xml:space="preserve">
<style type="text/css">
	.st0{fill:url(#SVGID_1_);}
</style>
<g>
	<g>
		<linearGradient id="SVGID_1_" gradientUnits="userSpaceOnUse" x1="11.9993" y1="19.9651" x2="11.9993" y2="4.034">
			<stop  offset="0.2856" style="stop-color:#F2AE0F"/>
			<stop  offset="1" style="stop-color:#F28C0F"/>
		</linearGradient>
		<path class="st0" d="M9.4,9.2c0,0-3.2,0.4-5.3,0.6c-0.2,0-0.4,0.1-0.4,0.3s0,0.4,0.1,0.5c1.6,1.4,3.9,3.6,3.9,3.6
			c0,0-0.6,3.1-1.1,5.2c0,0.2,0,0.4,0.2,0.5C7,20,7.2,20,7.4,19.9c1.8-1,4.6-2.6,4.6-2.6s2.8,1.6,4.6,2.6c0.2,0.1,0.4,0.1,0.5,0
			c0.2-0.1,0.2-0.3,0.2-0.5c-0.4-2.1-1.1-5.2-1.1-5.2s2.4-2.1,3.9-3.6c0.1-0.1,0.2-0.3,0.1-0.5s-0.2-0.3-0.4-0.3
			c-2.1-0.2-5.3-0.6-5.3-0.6s-1.3-2.9-2.2-4.8C12.4,4.2,12.2,4,12,4s-0.4,0.1-0.5,0.3C10.7,6.3,9.4,9.2,9.4,9.2z"/>
	</g>
</g>
</svg>
