<?xml version="1.0" encoding="utf-8"?>
<!-- Generator: Adobe Illustrator 27.0.0, SVG Export Plug-In . SVG Version: 6.00 Build 0)  -->
<svg version="1.1" id="Layer_1" xmlns="http://www.w3.org/2000/svg" xmlns:xlink="http://www.w3.org/1999/xlink" x="0px" y="0px"
	 viewBox="0 0 24 24" style="enable-background:new 0 0 24 24;" xml:space="preserve">
<style type="text/css">
	.st0{fill:url(#SVGID_1_);}
</style>
<linearGradient id="SVGID_1_" gradientUnits="userSpaceOnUse" x1="12" y1="21" x2="12" y2="3">
	<stop  offset="0.2856" style="stop-color:#F2AE0F"/>
	<stop  offset="1" style="stop-color:#F28C0F"/>
</linearGradient>
<path class="st0" d="M12,3c0,0-6.2,5.3-9.6,8.2C2.2,11.4,2,11.7,2,12c0,0.6,0.4,1,1,1h2v7c0,0.6,0.4,1,1,1h3c0.6,0,1-0.4,1-1v-4h4v4
	c0,0.6,0.4,1,1,1h3c0.6,0,1-0.4,1-1v-7h2c0.6,0,1-0.4,1-1c0-0.3-0.2-0.6-0.4-0.8C18.2,8.3,12,3,12,3z"/>
</svg>
