<?xml version="1.0" encoding="UTF-8"?>
<svg id="Layer_1" data-name="Layer 1" xmlns="http://www.w3.org/2000/svg" xmlns:xlink="http://www.w3.org/1999/xlink" viewBox="0 0 32.1 32">
  <defs>
    <style>
      .cls-1 {
        fill: url(#linear-gradient-2);
      }

      .cls-2 {
        fill: url(#linear-gradient-6);
      }

      .cls-3 {
        fill: url(#linear-gradient-10);
      }

      .cls-4 {
        fill: url(#linear-gradient-5);
      }

      .cls-5 {
        fill: url(#linear-gradient-7);
      }

      .cls-6 {
        fill: url(#linear-gradient-9);
      }

      .cls-7 {
        fill: url(#linear-gradient-3);
      }

      .cls-8 {
        fill: url(#linear-gradient);
      }

      .cls-9 {
        fill: url(#linear-gradient-4);
      }

      .cls-10 {
        fill: url(#linear-gradient-8);
      }
    </style>
    <linearGradient id="linear-gradient" x1="16.05" y1="1.2" x2="16.05" y2="33.2" gradientTransform="translate(0 33.2) scale(1 -1)" gradientUnits="userSpaceOnUse">
      <stop offset="0" stop-color="#7f999e"/>
      <stop offset="1" stop-color="#ababab"/>
    </linearGradient>
    <linearGradient id="linear-gradient-2" x1="9" y1="18.2" x2="9" y2="21.2" xlink:href="#linear-gradient"/>
    <linearGradient id="linear-gradient-3" x1="9" y1="13.2" x2="9" y2="16.2" xlink:href="#linear-gradient"/>
    <linearGradient id="linear-gradient-4" x1="9" y1="8.2" x2="9" y2="11.2" xlink:href="#linear-gradient"/>
    <linearGradient id="linear-gradient-5" x1="16" y1="8.2" x2="16" y2="11.2" xlink:href="#linear-gradient"/>
    <linearGradient id="linear-gradient-6" x1="16" y1="13.2" x2="16" y2="16.2" xlink:href="#linear-gradient"/>
    <linearGradient id="linear-gradient-7" x1="16" y1="18.2" x2="16" y2="21.2" xlink:href="#linear-gradient"/>
    <linearGradient id="linear-gradient-8" x1="23" y1="8.2" x2="23" y2="11.2" xlink:href="#linear-gradient"/>
    <linearGradient id="linear-gradient-9" x1="23" y1="13.2" x2="23" y2="16.2" xlink:href="#linear-gradient"/>
    <linearGradient id="linear-gradient-10" x1="23" y1="18.2" x2="23" y2="21.2" xlink:href="#linear-gradient"/>
  </defs>
  <g id="calendar">
    <path class="cls-8" d="M29.3,3h-4.3V1c0-.6-.4-1-1-1s-1,.4-1,1V3h-6V1c0-.6-.4-1-1-1s-1,.4-1,1V3h-6V1c0-.6-.4-1-1-1s-1,.4-1,1V3H2.7c-1.5,0-2.7,1.2-2.7,2.7V29.4c0,1.4,1.2,2.6,2.7,2.6H29.4c1.5,0,2.7-1.2,2.7-2.7V5.7c-.1-1.5-1.3-2.7-2.8-2.7Zm.7,26.3c0,.4-.3,.7-.7,.7H2.7c-.4,0-.7-.3-.7-.7V5.7c0-.4,.3-.7,.7-.7H7v2c0,.6,.4,1,1,1s1-.4,1-1v-2h6v2c0,.6,.4,1,1,1s1-.4,1-1v-2h6v2c0,.6,.4,1,1,1s1-.4,1-1v-2h4.3c.4,0,.7,.3,.7,.7V29.3Z"/>
    <rect class="cls-1" x="7" y="12" width="4" height="3"/>
    <rect class="cls-7" x="7" y="17" width="4" height="3"/>
    <rect class="cls-9" x="7" y="22" width="4" height="3"/>
    <rect class="cls-4" x="14" y="22" width="4" height="3"/>
    <rect class="cls-2" x="14" y="17" width="4" height="3"/>
    <rect class="cls-5" x="14" y="12" width="4" height="3"/>
    <rect class="cls-10" x="21" y="22" width="4" height="3"/>
    <rect class="cls-6" x="21" y="17" width="4" height="3"/>
    <rect class="cls-3" x="21" y="12" width="4" height="3"/>
  </g>
</svg>