<?xml version="1.0" encoding="utf-8"?>
<!-- Generator: Adobe Illustrator 27.0.0, SVG Export Plug-In . SVG Version: 6.00 Build 0)  -->
<svg version="1.1" id="Layer_1" xmlns="http://www.w3.org/2000/svg" xmlns:xlink="http://www.w3.org/1999/xlink" x="0px" y="0px"
	 viewBox="0 0 32 32" style="enable-background:new 0 0 32 32;" xml:space="preserve">
<style type="text/css">
	.st0{fill:url(#SVGID_1_);}
	.st1{fill:url(#SVGID_00000120533242506403736270000017462010440679679625_);}
	.st2{fill:url(#SVGID_00000034066928783917616450000006842041273758826417_);}
	.st3{fill:url(#SVGID_00000098217924523599866910000009986165281165740453_);}
	.st4{fill:url(#SVGID_00000005256305253626197080000005939899285742858657_);}
	.st5{fill:url(#SVGID_00000008133508714866700850000008092059571150871962_);}
	.st6{fill:url(#SVGID_00000143591819860273420190000016254023463048816569_);}
	.st7{fill:url(#SVGID_00000139252302578407075060000005884823896894564760_);}
	.st8{fill:url(#SVGID_00000067955040005494611710000003514635033826232198_);}
	.st9{fill:url(#SVGID_00000121269489726414878700000014918958467268500096_);}
</style>
<g id="calendar_1_">
	<linearGradient id="SVGID_1_" gradientUnits="userSpaceOnUse" x1="16" y1="32" x2="16" y2="-9.094947e-13">
		<stop  offset="0.2856" style="stop-color:#F2AE0F"/>
		<stop  offset="1" style="stop-color:#F28C0F"/>
	</linearGradient>
	<path class="st0" d="M29.3,3H25V1c0-0.6-0.4-1-1-1s-1,0.4-1,1v2h-6V1c0-0.6-0.4-1-1-1s-1,0.4-1,1v2H9V1c0-0.6-0.4-1-1-1S7,0.4,7,1
		v2H2.7C1.2,3,0,4.2,0,5.7v23.7C0,30.8,1.2,32,2.7,32h26.7c1.5,0,2.7-1.2,2.7-2.7V5.7C32,4.2,30.8,3,29.3,3z M30,29.3
		c0,0.4-0.3,0.7-0.7,0.7H2.7C2.3,30,2,29.7,2,29.3V5.7C2,5.3,2.3,5,2.7,5H7v2c0,0.6,0.4,1,1,1s1-0.4,1-1V5h6v2c0,0.6,0.4,1,1,1
		s1-0.4,1-1V5h6v2c0,0.6,0.4,1,1,1s1-0.4,1-1V5h4.3C29.7,5,30,5.3,30,5.7V29.3z"/>
	
		<linearGradient id="SVGID_00000128481412739108778240000000108641041618648998_" gradientUnits="userSpaceOnUse" x1="9" y1="15" x2="9" y2="12">
		<stop  offset="0.2856" style="stop-color:#F2AE0F"/>
		<stop  offset="1" style="stop-color:#F28C0F"/>
	</linearGradient>
	<rect x="7" y="12" style="fill:url(#SVGID_00000128481412739108778240000000108641041618648998_);" width="4" height="3"/>
	
		<linearGradient id="SVGID_00000145766227288147525860000015815773285319979909_" gradientUnits="userSpaceOnUse" x1="9" y1="20" x2="9" y2="17">
		<stop  offset="0.2856" style="stop-color:#F2AE0F"/>
		<stop  offset="1" style="stop-color:#F28C0F"/>
	</linearGradient>
	<rect x="7" y="17" style="fill:url(#SVGID_00000145766227288147525860000015815773285319979909_);" width="4" height="3"/>
	
		<linearGradient id="SVGID_00000182493332555694922030000017634879811484343704_" gradientUnits="userSpaceOnUse" x1="9" y1="25" x2="9" y2="22">
		<stop  offset="0.2856" style="stop-color:#F2AE0F"/>
		<stop  offset="1" style="stop-color:#F28C0F"/>
	</linearGradient>
	<rect x="7" y="22" style="fill:url(#SVGID_00000182493332555694922030000017634879811484343704_);" width="4" height="3"/>
	
		<linearGradient id="SVGID_00000053511873990768489390000011104628515320712362_" gradientUnits="userSpaceOnUse" x1="16" y1="25" x2="16" y2="22">
		<stop  offset="0.2856" style="stop-color:#F2AE0F"/>
		<stop  offset="1" style="stop-color:#F28C0F"/>
	</linearGradient>
	<rect x="14" y="22" style="fill:url(#SVGID_00000053511873990768489390000011104628515320712362_);" width="4" height="3"/>
	
		<linearGradient id="SVGID_00000160892903613500126960000000754570060560806026_" gradientUnits="userSpaceOnUse" x1="16" y1="20" x2="16" y2="17">
		<stop  offset="0.2856" style="stop-color:#F2AE0F"/>
		<stop  offset="1" style="stop-color:#F28C0F"/>
	</linearGradient>
	<rect x="14" y="17" style="fill:url(#SVGID_00000160892903613500126960000000754570060560806026_);" width="4" height="3"/>
	
		<linearGradient id="SVGID_00000109002265476737870900000011955440208572181123_" gradientUnits="userSpaceOnUse" x1="16" y1="15" x2="16" y2="12">
		<stop  offset="0.2856" style="stop-color:#F2AE0F"/>
		<stop  offset="1" style="stop-color:#F28C0F"/>
	</linearGradient>
	<rect x="14" y="12" style="fill:url(#SVGID_00000109002265476737870900000011955440208572181123_);" width="4" height="3"/>
	
		<linearGradient id="SVGID_00000074421492868942647460000015911406844260632981_" gradientUnits="userSpaceOnUse" x1="23" y1="25" x2="23" y2="22">
		<stop  offset="0.2856" style="stop-color:#F2AE0F"/>
		<stop  offset="1" style="stop-color:#F28C0F"/>
	</linearGradient>
	<rect x="21" y="22" style="fill:url(#SVGID_00000074421492868942647460000015911406844260632981_);" width="4" height="3"/>
	
		<linearGradient id="SVGID_00000050662252727538991690000014274297616206905014_" gradientUnits="userSpaceOnUse" x1="23" y1="20" x2="23" y2="17">
		<stop  offset="0.2856" style="stop-color:#F2AE0F"/>
		<stop  offset="1" style="stop-color:#F28C0F"/>
	</linearGradient>
	<rect x="21" y="17" style="fill:url(#SVGID_00000050662252727538991690000014274297616206905014_);" width="4" height="3"/>
	
		<linearGradient id="SVGID_00000117653785103057529940000004345991270396518061_" gradientUnits="userSpaceOnUse" x1="23" y1="15" x2="23" y2="12">
		<stop  offset="0.2856" style="stop-color:#F2AE0F"/>
		<stop  offset="1" style="stop-color:#F28C0F"/>
	</linearGradient>
	<rect x="21" y="12" style="fill:url(#SVGID_00000117653785103057529940000004345991270396518061_);" width="4" height="3"/>
</g>
</svg>
