<?xml version="1.0" encoding="utf-8"?>
<!-- Generator: Adobe Illustrator 27.0.0, SVG Export Plug-In . SVG Version: 6.00 Build 0)  -->
<svg version="1.1" id="Layer_1" xmlns="http://www.w3.org/2000/svg" xmlns:xlink="http://www.w3.org/1999/xlink" x="0px" y="0px"
	 viewBox="0 0 64 64" style="enable-background:new 0 0 64 64;" xml:space="preserve">
<style type="text/css">
	.st0{fill:url(#SVGID_1_);}
	.st1{fill:url(#SVGID_00000152944616794279550470000011570169465777875852_);}
	.st2{fill:url(#SVGID_00000096027755624750722980000013949145053070466473_);}
</style>
<g>
	<linearGradient id="SVGID_1_" gradientUnits="userSpaceOnUse" x1="44.9819" y1="41.1487" x2="44.9819" y2="33.5632">
		<stop  offset="0.2856" style="stop-color:#F2AE0F"/>
		<stop  offset="1" style="stop-color:#F28C0F"/>
	</linearGradient>
	<path class="st0" d="M49.1,38.7l-4-1.2c-1.1-0.3-1.9-1.2-1.9-1.2l-1.7-2.2c0,0,0,0,0,0c-0.9-1.2-0.9,0-0.9,0v6.5
		c0,0.2,0.1,0.7,0.9,0.5l7.6-1.8C49.9,39.2,49.1,38.7,49.1,38.7z"/>
	
		<linearGradient id="SVGID_00000181050758617200651390000008578483275019605900_" gradientUnits="userSpaceOnUse" x1="20.0768" y1="41.1019" x2="20.0768" y2="33.4309">
		<stop  offset="0.2856" style="stop-color:#F2AE0F"/>
		<stop  offset="1" style="stop-color:#F28C0F"/>
	</linearGradient>
	<path style="fill:url(#SVGID_00000181050758617200651390000008578483275019605900_);" d="M23.8,33.8l-1.3,1.5c0,0-1.1,1.3-2.6,1.9
		L16,38.7h0c0,0-1,0.5,0,0.7l7.3,1.7c1,0.2,1.1-0.3,1.2-0.6v-6.7C24.6,32.9,23.8,33.8,23.8,33.8z"/>
	
		<linearGradient id="SVGID_00000043456159825141368900000006728766319419660424_" gradientUnits="userSpaceOnUse" x1="32" y1="63.794" x2="32" y2="0.206">
		<stop  offset="0.2856" style="stop-color:#F2AE0F"/>
		<stop  offset="1" style="stop-color:#F28C0F"/>
	</linearGradient>
	<path style="fill:url(#SVGID_00000043456159825141368900000006728766319419660424_);" d="M32,0.2C14.4,0.2,0.2,14.4,0.2,32
		c0,17.6,14.2,31.8,31.8,31.8S63.8,49.6,63.8,32C63.8,14.4,49.6,0.2,32,0.2z M32.6,7.3c3,0,5.5,2.5,5.5,5.5s-2.5,5.5-5.5,5.5
		c-3,0-5.5-2.5-5.5-5.5S29.6,7.3,32.6,7.3z M52.9,46.3c-1.6,0.8-6.2,3.2-8.2,4.2c0,0-0.8,0.6,0,1l0.3,0.2c0.2,0.1,0.6,0.5,0.4,1.4
		l-0.2,0.9c0,0,0,0,0,0l0,0.1c-0.1,0.3-0.4,1.2-1.9,1.2H21.7c-1.7,0-2.2-2-2.2-2.1c0.1-1.1,0.7-1.6,0.7-1.6l0,0
		c0.6-0.7-0.2-1.2-0.2-1.2L11.6,46c0,0-3.4-2.7-1.3-5.3c0,0,0,0,0,0c0.4-0.7,0.1-1.3,0-1.5c-0.2-0.4-0.4-0.7-0.5-0.9
		c-0.3-0.6-0.5-1.8,1.2-2.6l5.9-2.6c0.4-0.2,1.6-0.8,2.7-2.3l5.6-8.2c0,0,1.5-1.6,3.1-1.6h7.8c0,0,2.2-0.6,4,2.1
		c1.2,1.9,4,5.7,5.6,7.7c0,0,1,1.3,3.2,2.4l5.8,2.7c0,0,1.3,0.7,0.6,2.2c0,0,0,0,0,0l-0.4,1c0,0-0.3,0.5,0.1,1.3
		c0.4,0.6,0.8,1.6,0.7,2.4C55.3,43.9,55,45.3,52.9,46.3z"/>
</g>
</svg>
